<svg xmlns="http://www.w3.org/2000/svg" xmlns:xlink="http://www.w3.org/1999/xlink" xml:space="preserve" version="1.0" style="shape-rendering:geometricPrecision;text-rendering:geometricPrecision;image-rendering:optimizeQuality;" viewBox="0 0 10000 12500" x="0px" y="0px" fill-rule="evenodd" clip-rule="evenodd"><defs><style type="text/css">
   
    .fil0 {fill:black}
   
  </style></defs><g><path class="fil0" d="M5000 1016c2201,0 3984,1783 3984,3984 0,2201 -1783,3984 -3984,3984 -2201,0 -3984,-1783 -3984,-3984 0,-2201 1783,-3984 3984,-3984zm-1938 6308c0,0 -1412,-1564 -825,-2563 586,-999 1585,-1173 3041,-1368 1455,-196 2628,-717 2628,-717 0,0 -282,1585 -1477,1672 -2651,193 -3936,-394 -3367,2976zm3584 -2791c-981,542 -3122,-495 -3443,1271 1342,-811 1418,754 3443,-1271zm-1318 1477c-231,18 -834,-131 -1335,-111 -313,12 -613,150 -674,252 -33,54 -65,814 -65,814 282,-388 1347,-266 2074,-955z"/></g><text x="0" y="10015" fill="#000000" font-size="5px" font-weight="bold" font-family="'Helvetica Neue', Helvetica, Arial-Unicode, Arial, Sans-serif">Created by Afebaulia</text><text x="0" y="10020" fill="#000000" font-size="5px" font-weight="bold" font-family="'Helvetica Neue', Helvetica, Arial-Unicode, Arial, Sans-serif">from the Noun Project</text></svg>