<svg xmlns="http://www.w3.org/2000/svg" xmlns:xlink="http://www.w3.org/1999/xlink" xml:space="preserve" version="1.0" style="shape-rendering:geometricPrecision;text-rendering:geometricPrecision;image-rendering:optimizeQuality;" viewBox="0 0 10000 12500" x="0px" y="0px" fill-rule="evenodd" clip-rule="evenodd"><defs><style type="text/css">
   
    .fil0 {fill:white}
	
    .green {fill:seagreen}
   
  </style></defs><g>
  <path class="fil0" d="M9018 2367c-1650,215 -7761,173 -7634,1908 86,1177 58,1521 0,1880 -57,359 -402,1478 -402,1478 0,0 574,-459 876,-1722 301,-1262 287,-1707 932,-1851 1995,-443 5040,359 6228,-1693z"/>
  <path class="fil0" d="M6951 4060l-3888 330c-581,110 -703,339 -703,904l3286 -172c529,-63 1169,-559 1305,-1062z"/>
  <path class="fil0" d="M2360 5667l3028 -244c-504,1486 -1817,1014 -3286,976l258 -732z"/>
  <path class="fil0" d="M2012 6718l2059 129c1029,65 -1485,740 -2339,689l280 -818z"/></g>
<!--   <text x="0" y="10015" fill="#000000" font-size="5px" font-weight="bold" font-family="'Helvetica Neue', Helvetica, Arial-Unicode, Arial, Sans-serif"></text>
  <text x="0" y="10020" fill="#000000" font-size="5px" font-weight="bold" font-family="'Helvetica Neue', Helvetica, Arial-Unicode, Arial, Sans-serif"></text> --></svg>